<svg viewBox="0 0 1920 1080" width="1920" height="1080" xmlns="http://www.w3.org/2000/svg">
<rect x="0" y="0" width="1920" height="1080" fill="#10151E"/>
<rect x="40" y="40" width="150" height="64" rx="32" fill="#0B0F16"/>
<text x="115" y="82" font-family="Inter, sans-serif" font-size="24" fill="#F2F5F7" text-anchor="middle">&#8592; Back</text>
<text x="960" y="88" font-family="Inter, sans-serif" font-size="40" font-weight="500" fill="#F2F5F7" text-anchor="middle" letter-spacing="6">SETTINGS</text>
<rect x="80" y="170" width="380" height="700" rx="16" fill="#0B0F16"/>
<text x="140" y="248" font-family="Inter, sans-serif" font-size="26" fill="#8E9AA8" letter-spacing="2">AUDIO</text>
<rect x="104" y="296" width="332" height="76" rx="12" fill="#1FB8C9"/>
<text x="140" y="344" font-family="Inter, sans-serif" font-size="26" font-weight="500" fill="#0E2A33" letter-spacing="2">GRAPHICS</text>
<text x="140" y="440" font-family="Inter, sans-serif" font-size="26" fill="#8E9AA8" letter-spacing="2">CONTROLS</text>
<text x="140" y="536" font-family="Inter, sans-serif" font-size="26" fill="#8E9AA8" letter-spacing="2">LANGUAGE</text>
<text x="140" y="632" font-family="Inter, sans-serif" font-size="26" fill="#8E9AA8" letter-spacing="2">ACCOUNT</text>
<rect x="500" y="170" width="1340" height="700" rx="16" fill="#0B0F16"/>
<text x="560" y="252" font-family="Inter, sans-serif" font-size="22" fill="#8E9AA8" letter-spacing="3">QUALITY PRESET</text><rect x="560" y="272" width="1240" height="72" rx="12" fill="#1A2130"/><text x="719" y="318" font-family="Inter, sans-serif" font-size="24" fill="#8E9AA8" text-anchor="middle">Low</text><text x="1026" y="318" font-family="Inter, sans-serif" font-size="24" fill="#8E9AA8" text-anchor="middle">Medium</text><rect x="1180" y="278" width="307" height="60" rx="9" fill="#1FB8C9"/><text x="1333" y="318" font-family="Inter, sans-serif" font-size="24" font-weight="500" fill="#0E2A33" text-anchor="middle">High</text><text x="1640" y="318" font-family="Inter, sans-serif" font-size="24" fill="#8E9AA8" text-anchor="middle">Ultra</text><text x="560" y="420" font-family="Inter, sans-serif" font-size="22" fill="#8E9AA8" letter-spacing="3">RENDER SCALE</text><rect x="560" y="444" width="900" height="12" rx="6" fill="#242C38"/><rect x="560" y="444" width="900" height="12" rx="6" fill="#1FB8C9"/><circle cx="1460" cy="450" r="20" fill="#F2F5F7"/><text x="1560" y="458" font-family="JetBrains Mono, monospace" font-size="26" fill="#F2F5F7" text-anchor="end">100%</text><text x="560" y="546" font-family="Inter, sans-serif" font-size="22" fill="#8E9AA8" letter-spacing="3">FPS LIMIT</text><rect x="560" y="566" width="620" height="72" rx="12" fill="#1A2130"/><text x="667" y="612" font-family="JetBrains Mono, monospace" font-size="24" fill="#8E9AA8" text-anchor="middle">30</text><rect x="768" y="572" width="202" height="60" rx="9" fill="#1FB8C9"/><text x="869" y="612" font-family="JetBrains Mono, monospace" font-size="24" font-weight="500" fill="#0E2A33" text-anchor="middle">60</text><text x="1071" y="612" font-family="JetBrains Mono, monospace" font-size="24" fill="#8E9AA8" text-anchor="middle">120</text><rect x="560" y="668" width="1240" height="2" fill="#1A2130"/><text x="560" y="732" font-family="Inter, sans-serif" font-size="24" fill="#F2F5F7">Post-processing</text><rect x="1720" y="706" width="80" height="40" rx="20" fill="#1FB8C9"/><circle cx="1778" cy="726" r="15" fill="#F2F5F7"/><text x="560" y="812" font-family="Inter, sans-serif" font-size="24" fill="#F2F5F7">Real-time shadows</text><rect x="1720" y="786" width="80" height="40" rx="20" fill="#242C38"/><circle cx="1742" cy="806" r="15" fill="#8E9AA8"/>
<rect x="1170" y="930" width="310" height="80" rx="14" fill="none" stroke="#3A4452" stroke-width="2"/>
<text x="1325" y="980" font-family="Inter, sans-serif" font-size="24" fill="#8E9AA8" text-anchor="middle" letter-spacing="2">RESET DEFAULTS</text>
<rect x="1520" y="930" width="320" height="80" rx="14" fill="#1FB8C9"/>
<text x="1680" y="980" font-family="Inter, sans-serif" font-size="26" font-weight="500" fill="#0E2A33" text-anchor="middle" letter-spacing="3">APPLY</text>
</svg>