<svg viewBox="0 0 1920 1080" width="1920" height="1080" xmlns="http://www.w3.org/2000/svg">
<rect x="0" y="0" width="1920" height="1080" fill="#10151E"/>
<rect x="40" y="40" width="150" height="64" rx="32" fill="#0B0F16"/>
<text x="115" y="82" font-family="Inter, sans-serif" font-size="24" fill="#F2F5F7" text-anchor="middle">&#8592; Back</text>
<text x="960" y="88" font-family="Inter, sans-serif" font-size="40" font-weight="500" fill="#F2F5F7" text-anchor="middle" letter-spacing="6">SETTINGS</text>
<rect x="80" y="170" width="380" height="700" rx="16" fill="#0B0F16"/>
<text x="140" y="248" font-family="Inter, sans-serif" font-size="26" fill="#8E9AA8" letter-spacing="2">AUDIO</text>
<text x="140" y="344" font-family="Inter, sans-serif" font-size="26" fill="#8E9AA8" letter-spacing="2">GRAPHICS</text>
<rect x="104" y="392" width="332" height="76" rx="12" fill="#1FB8C9"/>
<text x="140" y="440" font-family="Inter, sans-serif" font-size="26" font-weight="500" fill="#0E2A33" letter-spacing="2">CONTROLS</text>
<text x="140" y="536" font-family="Inter, sans-serif" font-size="26" fill="#8E9AA8" letter-spacing="2">LANGUAGE</text>
<text x="140" y="632" font-family="Inter, sans-serif" font-size="26" fill="#8E9AA8" letter-spacing="2">ACCOUNT</text>
<rect x="500" y="170" width="1340" height="700" rx="16" fill="#0B0F16"/>
<text x="560" y="252" font-family="Inter, sans-serif" font-size="22" fill="#8E9AA8" letter-spacing="3">CONTROL SCHEME</text><rect x="560" y="272" width="930" height="72" rx="12" fill="#1A2130"/><text x="719" y="318" font-family="Inter, sans-serif" font-size="24" fill="#8E9AA8" text-anchor="middle">Tilt</text><rect x="872" y="278" width="306" height="60" rx="9" fill="#1FB8C9"/><text x="1025" y="318" font-family="Inter, sans-serif" font-size="24" font-weight="500" fill="#0E2A33" text-anchor="middle">Buttons</text><text x="1331" y="318" font-family="Inter, sans-serif" font-size="24" fill="#8E9AA8" text-anchor="middle">Wheel</text><text x="560" y="420" font-family="Inter, sans-serif" font-size="22" fill="#8E9AA8" letter-spacing="3">STEERING SENSITIVITY</text><rect x="560" y="444" width="900" height="12" rx="6" fill="#242C38"/><rect x="560" y="444" width="630" height="12" rx="6" fill="#1FB8C9"/><circle cx="1190" cy="450" r="20" fill="#F2F5F7"/><text x="1560" y="458" font-family="JetBrains Mono, monospace" font-size="26" fill="#F2F5F7" text-anchor="end">70</text><text x="560" y="546" font-family="Inter, sans-serif" font-size="24" fill="#F2F5F7">Invert steering</text><rect x="1380" y="520" width="80" height="40" rx="20" fill="#242C38"/><circle cx="1402" cy="540" r="15" fill="#8E9AA8"/><text x="560" y="622" font-family="Inter, sans-serif" font-size="24" fill="#F2F5F7">Auto-accelerate</text><rect x="1380" y="596" width="80" height="40" rx="20" fill="#1FB8C9"/><circle cx="1438" cy="616" r="15" fill="#F2F5F7"/><text x="560" y="708" font-family="Inter, sans-serif" font-size="22" fill="#8E9AA8" letter-spacing="3">LAYOUT PREVIEW</text><rect x="560" y="728" width="900" height="120" rx="12" fill="#1A2130"/><circle cx="640" cy="788" r="34" fill="#242C38" stroke="#1FB8C9" stroke-width="2"/><text x="640" y="798" font-family="Inter, sans-serif" font-size="26" fill="#1FB8C9" text-anchor="middle">&#8592;</text><circle cx="730" cy="788" r="34" fill="#242C38" stroke="#1FB8C9" stroke-width="2"/><text x="730" y="798" font-family="Inter, sans-serif" font-size="26" fill="#1FB8C9" text-anchor="middle">&#8594;</text><circle cx="1380" cy="788" r="38" fill="#242C38" stroke="#7F77DD" stroke-width="2"/><text x="1380" y="796" font-family="Inter, sans-serif" font-size="17" fill="#7F77DD" text-anchor="middle">NITRO</text><rect x="1520" y="748" width="280" height="80" rx="14" fill="none" stroke="#3A4452" stroke-width="2"/><text x="1660" y="798" font-family="Inter, sans-serif" font-size="22" fill="#F2F5F7" text-anchor="middle" letter-spacing="2">EDIT LAYOUT</text>
<rect x="1170" y="930" width="310" height="80" rx="14" fill="none" stroke="#3A4452" stroke-width="2"/>
<text x="1325" y="980" font-family="Inter, sans-serif" font-size="24" fill="#8E9AA8" text-anchor="middle" letter-spacing="2">RESET DEFAULTS</text>
<rect x="1520" y="930" width="320" height="80" rx="14" fill="#1FB8C9"/>
<text x="1680" y="980" font-family="Inter, sans-serif" font-size="26" font-weight="500" fill="#0E2A33" text-anchor="middle" letter-spacing="3">APPLY</text>
</svg>