<svg viewBox="0 0 1920 1080" width="1920" height="1080" xmlns="http://www.w3.org/2000/svg">
<rect x="0" y="0" width="1920" height="1080" fill="#10151E"/>
<rect x="40" y="40" width="150" height="64" rx="32" fill="#0B0F16"/>
<text x="115" y="82" font-family="Inter, sans-serif" font-size="24" fill="#F2F5F7" text-anchor="middle">&#8592; Back</text>
<text x="960" y="88" font-family="Inter, sans-serif" font-size="40" font-weight="500" fill="#F2F5F7" text-anchor="middle" letter-spacing="6">SETTINGS</text>
<rect x="80" y="170" width="380" height="700" rx="16" fill="#0B0F16"/>
<text x="140" y="248" font-family="Inter, sans-serif" font-size="26" fill="#8E9AA8" letter-spacing="2">AUDIO</text>
<text x="140" y="344" font-family="Inter, sans-serif" font-size="26" fill="#8E9AA8" letter-spacing="2">GRAPHICS</text>
<text x="140" y="440" font-family="Inter, sans-serif" font-size="26" fill="#8E9AA8" letter-spacing="2">CONTROLS</text>
<rect x="104" y="488" width="332" height="76" rx="12" fill="#1FB8C9"/>
<text x="140" y="536" font-family="Inter, sans-serif" font-size="26" font-weight="500" fill="#0E2A33" letter-spacing="2">LANGUAGE</text>
<text x="140" y="632" font-family="Inter, sans-serif" font-size="26" fill="#8E9AA8" letter-spacing="2">ACCOUNT</text>
<rect x="500" y="170" width="1340" height="700" rx="16" fill="#0B0F16"/>
<rect x="560" y="230" width="600" height="88" rx="12" fill="#1A2130" stroke="#1FB8C9" stroke-width="2"/><circle cx="608" cy="274" r="16" fill="none" stroke="#1FB8C9" stroke-width="3"/><circle cx="608" cy="274" r="8" fill="#1FB8C9"/><text x="648" y="284" font-family="Inter, sans-serif" font-size="26" fill="#F2F5F7">English</text><rect x="560" y="338" width="600" height="88" rx="12" fill="#1A2130"/><circle cx="608" cy="382" r="16" fill="none" stroke="#3A4452" stroke-width="3"/><text x="648" y="392" font-family="Inter, sans-serif" font-size="26" fill="#F2F5F7">&#1344;&#1377;&#1397;&#1381;&#1408;&#1381;&#1398;</text><rect x="560" y="446" width="600" height="88" rx="12" fill="#1A2130"/><circle cx="608" cy="490" r="16" fill="none" stroke="#3A4452" stroke-width="3"/><text x="648" y="500" font-family="Inter, sans-serif" font-size="26" fill="#F2F5F7">&#1056;&#1091;&#1089;&#1089;&#1082;&#1080;&#1081;</text><rect x="560" y="554" width="600" height="88" rx="12" fill="#1A2130"/><circle cx="608" cy="598" r="16" fill="none" stroke="#3A4452" stroke-width="3"/><text x="648" y="608" font-family="Inter, sans-serif" font-size="26" fill="#F2F5F7">Deutsch</text><rect x="1200" y="230" width="600" height="88" rx="12" fill="#1A2130"/><circle cx="1248" cy="274" r="16" fill="none" stroke="#3A4452" stroke-width="3"/><text x="1288" y="284" font-family="Inter, sans-serif" font-size="26" fill="#F2F5F7">Espa&#241;ol</text><rect x="1200" y="338" width="600" height="88" rx="12" fill="#1A2130"/><circle cx="1248" cy="382" r="16" fill="none" stroke="#3A4452" stroke-width="3"/><text x="1288" y="392" font-family="Inter, sans-serif" font-size="26" fill="#F2F5F7">Fran&#231;ais</text><rect x="1200" y="446" width="600" height="88" rx="12" fill="#1A2130"/><circle cx="1248" cy="490" r="16" fill="none" stroke="#3A4452" stroke-width="3"/><text x="1288" y="500" font-family="Inter, sans-serif" font-size="26" fill="#F2F5F7">Portugu&#234;s</text><rect x="1200" y="554" width="600" height="88" rx="12" fill="#1A2130"/><circle cx="1248" cy="598" r="16" fill="none" stroke="#3A4452" stroke-width="3"/><text x="1288" y="608" font-family="Inter, sans-serif" font-size="26" fill="#F2F5F7">T&#252;rk&#231;e</text><text x="560" y="720" font-family="Inter, sans-serif" font-size="20" fill="#5C6673">Language changes apply immediately &#8212; no restart needed.</text>
<rect x="1170" y="930" width="310" height="80" rx="14" fill="none" stroke="#3A4452" stroke-width="2"/>
<text x="1325" y="980" font-family="Inter, sans-serif" font-size="24" fill="#8E9AA8" text-anchor="middle" letter-spacing="2">RESET DEFAULTS</text>
<rect x="1520" y="930" width="320" height="80" rx="14" fill="#1FB8C9"/>
<text x="1680" y="980" font-family="Inter, sans-serif" font-size="26" font-weight="500" fill="#0E2A33" text-anchor="middle" letter-spacing="3">APPLY</text>
</svg>