<svg viewBox="0 0 1920 1080" width="1920" height="1080" xmlns="http://www.w3.org/2000/svg">
<rect x="0" y="0" width="1920" height="1080" fill="#10151E"/>
<rect x="40" y="40" width="150" height="64" rx="32" fill="#0B0F16"/>
<text x="115" y="82" font-family="Inter, sans-serif" font-size="24" fill="#F2F5F7" text-anchor="middle">&#8592; Back</text>
<text x="960" y="88" font-family="Inter, sans-serif" font-size="40" font-weight="500" fill="#F2F5F7" text-anchor="middle" letter-spacing="6">SETTINGS</text>
<rect x="80" y="170" width="380" height="700" rx="16" fill="#0B0F16"/>
<text x="140" y="248" font-family="Inter, sans-serif" font-size="26" fill="#8E9AA8" letter-spacing="2">AUDIO</text>
<text x="140" y="344" font-family="Inter, sans-serif" font-size="26" fill="#8E9AA8" letter-spacing="2">GRAPHICS</text>
<text x="140" y="440" font-family="Inter, sans-serif" font-size="26" fill="#8E9AA8" letter-spacing="2">CONTROLS</text>
<text x="140" y="536" font-family="Inter, sans-serif" font-size="26" fill="#8E9AA8" letter-spacing="2">LANGUAGE</text>
<rect x="104" y="584" width="332" height="76" rx="12" fill="#1FB8C9"/>
<text x="140" y="632" font-family="Inter, sans-serif" font-size="26" font-weight="500" fill="#0E2A33" letter-spacing="2">ACCOUNT</text>
<rect x="500" y="170" width="1340" height="700" rx="16" fill="#0B0F16"/>
<text x="560" y="252" font-family="Inter, sans-serif" font-size="22" fill="#8E9AA8" letter-spacing="3">PLAYER NAME</text><rect x="560" y="272" width="700" height="80" rx="12" fill="#1A2130" stroke="#3A4452" stroke-width="2"/><text x="596" y="322" font-family="Inter, sans-serif" font-size="28" fill="#F2F5F7">Player_1</text><text x="1218" y="322" font-family="Inter, sans-serif" font-size="24" fill="#1FB8C9" text-anchor="end">Edit</text><text x="560" y="428" font-family="Inter, sans-serif" font-size="22" fill="#8E9AA8" letter-spacing="3">AVATAR COLOR</text><circle cx="596" cy="486" r="30" fill="#1FB8C9" stroke="#F2F5F7" stroke-width="4"/><circle cx="688" cy="486" r="26" fill="#F08A3C"/><circle cx="772" cy="486" r="26" fill="#7F77DD"/><circle cx="856" cy="486" r="26" fill="#5BD97C"/><circle cx="940" cy="486" r="26" fill="#FFC94D"/><circle cx="1024" cy="486" r="26" fill="#F45B69"/><text x="1100" y="494" font-family="Inter, sans-serif" font-size="19" fill="#5C6673">Also used as your car color in races</text><text x="560" y="592" font-family="Inter, sans-serif" font-size="22" fill="#8E9AA8" letter-spacing="3">PLAYER ID</text><rect x="560" y="612" width="700" height="70" rx="12" fill="#1A2130"/><text x="596" y="656" font-family="JetBrains Mono, monospace" font-size="26" fill="#F2F5F7">FUS-8842-1093</text><rect x="1120" y="624" width="120" height="46" rx="23" fill="#242C38"/><text x="1180" y="654" font-family="Inter, sans-serif" font-size="20" fill="#1FB8C9" text-anchor="middle">COPY</text><text x="560" y="716" font-family="Inter, sans-serif" font-size="19" fill="#5C6673">Share this ID so a friend can join your race directly.</text><rect x="1400" y="252" width="400" height="200" rx="12" fill="#1A2130"/><text x="1600" y="300" font-family="Inter, sans-serif" font-size="20" fill="#8E9AA8" text-anchor="middle" letter-spacing="2">CAREER</text><text x="1600" y="356" font-family="JetBrains Mono, monospace" font-size="30" fill="#F2F5F7" text-anchor="middle">128 races &#183; 74 wins</text><text x="1600" y="408" font-family="JetBrains Mono, monospace" font-size="26" fill="#1FB8C9" text-anchor="middle">58% win rate</text><rect x="560" y="770" width="280" height="70" rx="12" fill="none" stroke="#3A4452" stroke-width="2"/><text x="700" y="814" font-family="Inter, sans-serif" font-size="22" fill="#F2F5F7" text-anchor="middle" letter-spacing="2">SIGN OUT</text><rect x="870" y="770" width="320" height="70" rx="12" fill="none" stroke="#7A3A42" stroke-width="2"/><text x="1030" y="814" font-family="Inter, sans-serif" font-size="22" fill="#F45B69" text-anchor="middle" letter-spacing="2">DELETE MY DATA</text>
<rect x="1520" y="930" width="320" height="80" rx="14" fill="#1FB8C9"/>
<text x="1680" y="980" font-family="Inter, sans-serif" font-size="26" font-weight="500" fill="#0E2A33" text-anchor="middle" letter-spacing="3">APPLY</text>
</svg>