<svg viewBox="0 0 1920 1080" width="1920" height="1080" xmlns="http://www.w3.org/2000/svg">
<rect x="0" y="0" width="1920" height="560" fill="#141B2B"/>
<rect x="0" y="560" width="1920" height="520" fill="#232A33"/>
<polygon points="905,560 1015,560 1620,1080 300,1080" fill="#343B45"/>
<rect x="40" y="40" width="250" height="150" rx="14" fill="#0B0F16" opacity="0.72"/>
<circle cx="1660" cy="880" r="178" fill="#0B0F16" opacity="0.8"/>
<rect x="0" y="0" width="1920" height="1080" fill="#05070B" opacity="0.7"/>
<rect x="660" y="230" width="600" height="620" rx="20" fill="#141A24" stroke="#2A3342" stroke-width="1.5"/>
<text x="1206" y="290" font-family="Inter, sans-serif" font-size="30" fill="#8E9AA8" text-anchor="middle">&#10005;</text>
<text x="960" y="342" font-family="Inter, sans-serif" font-size="52" font-weight="500" fill="#F2F5F7" text-anchor="middle" letter-spacing="8">PAUSED</text>
<text x="960" y="396" font-family="Inter, sans-serif" font-size="21" fill="#FFC94D" text-anchor="middle">Online race &#8212; the race keeps running</text>
<rect x="740" y="424" width="440" height="2" fill="#242C38"/>
<rect x="740" y="470" width="440" height="84" rx="14" fill="#1FB8C9"/>
<text x="960" y="524" font-family="Inter, sans-serif" font-size="28" font-weight="500" fill="#0E2A33" text-anchor="middle" letter-spacing="3">RESUME</text>
<rect x="740" y="578" width="440" height="76" rx="14" fill="none" stroke="#3A4452" stroke-width="2"/>
<text x="960" y="626" font-family="Inter, sans-serif" font-size="24" fill="#F2F5F7" text-anchor="middle" letter-spacing="2">SETTINGS</text>
<rect x="740" y="678" width="440" height="76" rx="14" fill="none" stroke="#7A3A42" stroke-width="2"/>
<text x="960" y="726" font-family="Inter, sans-serif" font-size="24" fill="#F45B69" text-anchor="middle" letter-spacing="2">LEAVE RACE</text>
<circle cx="792" cy="800" r="8" fill="#5BD97C"/>
<text x="812" y="808" font-family="Inter, sans-serif" font-size="19" fill="#8E9AA8">Connected &#183; 32 ms</text>
<text x="1180" y="808" font-family="JetBrains Mono, monospace" font-size="19" fill="#8E9AA8" text-anchor="end">Lap 2 / 3</text>
</svg>
